<svg width="138" height="40" viewBox="0 0 138 40" fill="none" xmlns="http://www.w3.org/2000/svg">
<path d="M53.4738 15.2789C55.8374 15.2789 57.9357 13.4098 58.3336 11.0703C58.7316 8.79113 57.1759 6.90991 54.8124 6.90991C52.4488 6.90991 50.3505 8.77907 49.9525 11.0703C49.5546 13.4098 51.2188 15.2789 53.4738 15.2789Z" fill="#FED33C"/>
<path d="M133.86 29.2192C133.763 29.1468 133.631 29.1709 133.546 29.2553C132.533 30.3165 131.363 30.4009 130.7 30.4009C129.904 30.4009 128.65 29.9548 129.289 28.0012L132.823 17.7027C132.847 17.6304 132.859 17.5701 132.823 17.4977C132.786 17.4012 132.714 17.3651 132.593 17.353C132.437 17.3409 132.208 17.3289 131.918 17.3168C130.206 17.2686 127.697 17.7871 126.07 19.3789C125.949 19.4875 125.792 19.5236 125.659 19.3669C124.092 17.8233 122.633 17.2686 120.776 17.2686C115.687 17.2686 111.357 20.4401 109.536 25.8667C109.476 26.0235 109.44 26.1803 109.392 26.337C109.38 26.3973 109.356 26.4214 109.331 26.4576C108.186 27.8324 106.642 28.7971 105.617 28.7971C104.954 28.7971 104.532 28.363 104.954 27.1329C104.954 27.1329 110.453 11.0461 111.369 8.36899C111.394 8.29663 111.394 8.23634 111.369 8.17604C111.321 8.07957 111.225 8.04339 111.128 8.04339C110.972 8.04339 110.754 8.03133 110.477 8.04339C108.355 8.04339 104.267 8.64634 102.711 13.2409L100.577 19.4633C100.577 19.4633 100.54 19.5357 100.516 19.5598C98.7557 21.7425 96.7056 22.3937 95.3188 22.4902C95.2344 22.4902 95.1741 22.4902 95.1138 22.4299C95.0776 22.3937 95.0535 22.3455 95.0294 22.2731C94.4747 19.7528 91.882 17.2807 87.2151 17.2807C81.9453 17.2807 77.1096 20.5246 75.4093 25.7341C75.3852 25.8185 75.349 25.927 75.3249 26.0114C73.8175 28.158 69.4762 30.9195 65.557 30.4371C63.8808 30.2321 62.5784 28.9418 63.4587 25.8185C64.0014 23.877 65.4726 22.5505 67.0644 22.5264C68.2462 22.5143 69.5606 23.0087 69.7897 24.5161C69.8018 24.6005 69.8139 24.7091 69.8862 24.7452C69.9586 24.7814 69.9947 24.7814 70.0671 24.7814C70.1636 24.7814 70.2118 24.7814 70.3806 24.7452C71.4901 24.5764 72.5754 24.287 73.4798 23.3102C74.2998 22.4178 74.8184 20.9346 74.1189 19.4995C73.5039 18.2333 71.6348 17.3892 69.4641 17.3168C63.109 17.1239 58.5627 20.7778 56.778 25.3482C56.7297 25.4808 56.573 25.915 56.4886 26.2164C55.0776 27.8927 53.6426 28.785 52.5694 28.785C51.9061 28.785 51.4961 28.4233 51.9423 27.1209C51.9423 27.1209 54.547 19.4754 55.1621 17.6545C55.1862 17.5821 55.1862 17.5098 55.1621 17.4615C55.1259 17.3771 55.0415 17.3409 54.9209 17.3289C54.7521 17.3289 54.535 17.3048 54.2456 17.3168C52.1232 17.3168 48.0231 17.9439 46.5157 22.5022L45.5992 25.1552C44.2486 28.3388 41.3544 29.605 38.7496 28.978C37.0131 28.5559 36.2775 26.53 35.7228 24.082C35.6987 23.9734 35.7228 23.9011 35.8313 23.8408C38.6652 22.0802 42.2106 19.391 43.103 14.7C44.2003 8.95988 40.3053 3.43682 31.2489 3.4127C17.0192 3.37652 7.10658 12.9032 4.59829 22.2611C2.83767 28.8333 4.92389 36.527 12.6779 36.527C18.0804 36.527 21.5654 34.2478 25.7861 21.6581C26.1841 20.4884 26.8956 18.378 27.2211 17.353C27.2453 17.2807 27.2573 17.2083 27.2211 17.148C27.185 17.0636 27.0885 17.0274 26.9679 17.0154C26.787 17.0154 26.5941 17.0033 26.3167 17.0033C24.1943 17.0033 19.5636 17.5942 17.9115 22.2852C16.2474 27.0365 15.8374 29.3639 13.2326 29.1106C11.2187 28.9177 11.1102 24.7693 12.4488 21.5255C13.715 18.4624 17.8754 11.239 27.6553 10.3346C33.5883 9.7799 35.0113 12.24 34.2878 15.4115C33.7089 17.9439 31.0801 20.0542 28.0412 21.224C27.1729 21.5616 26.9317 21.9716 27.0161 22.6952C27.8362 29.8703 31.1524 36.1411 35.8555 36.5149C39.1958 36.7802 41.5594 35.116 43.2356 33.5725C43.2597 33.5484 43.2718 33.5363 43.2959 33.5242C43.4044 33.464 43.5492 33.5242 43.5853 33.6207C43.5853 33.6207 43.5853 33.6569 43.5853 33.669C43.9953 35.5261 45.4666 36.5631 47.5769 36.5631C51.0861 36.5631 53.7391 34.8869 56.4041 32.3183C56.4162 32.3063 56.4403 32.2822 56.4644 32.2701C56.5609 32.2219 56.6815 32.246 56.7418 32.3666C56.8142 32.5113 56.8745 32.6319 56.9468 32.7645C58.3215 35.0678 60.9142 36.4787 63.7723 36.5752C69.3677 36.7681 72.3704 34.9231 75.144 32.3183C75.156 32.3063 75.1802 32.2942 75.1922 32.2822C75.2887 32.2219 75.3972 32.246 75.4696 32.3786C76.7237 35.0558 79.5696 36.5752 82.6568 36.5752C87.7216 36.5752 92.1232 33.9584 94.2817 29.2312C94.342 29.0986 94.4626 28.7971 94.535 28.6041C94.547 28.568 94.5712 28.5318 94.6073 28.5077C94.6315 28.4956 94.6556 28.4836 94.6918 28.4715C95.6324 28.3027 96.5368 27.9529 97.393 27.5068C97.5136 27.4465 97.6583 27.4706 97.6945 27.5791C97.7186 27.6394 97.7065 27.6997 97.6945 27.7479L96.9589 29.8824C95.5359 33.9825 97.2603 36.5631 100.601 36.5631C104.194 36.5631 106.606 34.9352 109.199 32.5233C109.211 32.5233 109.235 32.4872 109.259 32.4872C109.356 32.4389 109.476 32.463 109.536 32.5836C110.513 34.8146 112.853 36.5752 115.361 36.5752C117.604 36.5752 119.377 36.1652 121.608 34.3322C121.632 34.3081 121.668 34.2719 121.692 34.2478C121.789 34.1875 121.849 34.2116 121.933 34.3443C122.681 35.5622 124.321 36.5149 126.045 36.5631C131.291 36.7199 133.16 33.3434 133.631 31.1486C133.787 30.4009 133.836 29.81 133.848 29.4121C133.848 29.3277 133.836 29.2674 133.775 29.2192M88.3246 27.0485C87.7698 28.9539 86.4313 30.3889 84.5501 30.3889C82.6688 30.3889 81.3423 28.8815 82.2227 25.8185C82.7774 23.889 84.2124 22.5264 85.9127 22.5264C87.806 22.5264 89.2652 23.8046 88.3246 27.0485ZM122.404 27.0485C121.849 28.9539 120.51 30.3889 118.617 30.3889C116.724 30.3889 115.409 28.8815 116.29 25.8185C116.844 23.889 118.279 22.5264 119.98 22.5264C121.873 22.5264 123.332 23.8046 122.391 27.0485" fill="#FED33C"/>
</svg>
